<svg width="24px" height="24px" fill="#000000ff" viewBox="0 -960 960 960" xmlns="http://www.w3.org/2000/svg"><path d="m240-280h480l-123-164q-11-2-22.5-5t-22.5-7l-102 136-90-120zm-40 160q-33 0-56.5-23.5t-23.5-56.5v-560q0-33 23.5-56.5t56.5-23.5h200v80h-200v560h560v-213l80 80v133q0 33-23.5 56.5t-56.5 23.5zm280-360m423.39 154.98-188.22-188.22q-22.407 17.925-51.536 28.382-29.129 10.456-61.992 10.456-81.411 0-137.8-56.39-56.39-56.39-56.39-137.8 0-81.411 56.39-137.8 56.39-56.39 137.8-56.39t137.8 56.39q56.39 56.39 56.39 137.8 0 32.863-10.456 61.992-10.457 29.129-28.382 51.536l188.22 188.22zm-301.74-209.13q56.017 0 95.229-39.212t39.212-95.229q0-56.017-39.212-95.229-39.212-39.212-95.229-39.212t-95.229 39.212q-39.212 39.212-39.212 95.229 0 56.017 39.212 95.229 39.212 39.212 95.229 39.212zm-29.876-44.814v-59.751h-59.751v-59.751h59.751v-59.751h59.751v59.751h59.751v59.751h-59.751v59.751z"/></svg>
